<svg width="33" height="40" viewBox="0 0 33 40" fill="none" xmlns="http://www.w3.org/2000/svg">
<path d="M16.5544 0.000656731C14.7661 0.00109218 13.0513 0.595563 11.7868 1.65339C10.5223 2.71121 9.81174 4.14581 9.8112 5.64179V8.20445H6.7479C5.86173 8.20383 4.9841 8.34942 4.16524 8.63284C3.34639 8.91627 2.60238 9.33201 1.97578 9.85624C1.34918 10.3804 0.852285 11.0029 0.513529 11.6879C0.174774 12.373 0.000807301 13.1072 0.00158204 13.8485V19.4877H9.80962V24.613H6.74632C4.95757 24.6128 3.24197 25.207 1.97684 26.2649C0.7117 27.3228 0.000624845 28.7576 0 30.2541V40H6.74948C7.63481 39.9997 8.51137 39.8535 9.32915 39.5696C10.1469 39.2859 10.8898 38.8701 11.5155 38.3461C12.1411 37.8221 12.6373 37.2001 12.9756 36.5156C13.3139 35.831 13.4877 35.0977 13.4872 34.3571H13.4958V30.6338L13.4777 30.6358V6.91491L13.4927 6.91787V5.64277C13.4942 4.96287 13.8172 4.31109 14.3911 3.82968C14.965 3.34827 15.7432 3.07634 16.556 3.07321H28.2707V5.64277C28.2682 6.32236 27.9441 6.97347 27.3694 7.4537C26.7946 7.93393 26.0159 8.20422 25.2035 8.20544H14.879V11.2813H25.2019C26.9902 11.2814 28.7052 10.6872 29.9698 9.62947C31.2344 8.57174 31.9449 7.13712 31.9451 5.64114V0L16.5544 0.000656731ZM9.8112 16.4115H3.68225V13.8488C3.68359 13.1682 4.00695 12.5156 4.5817 12.0337C5.15642 11.5519 5.9358 11.2799 6.74948 11.2773H9.81278L9.8112 16.4115ZM9.8112 34.3599C9.80986 35.0394 9.48677 35.691 8.91269 36.1716C8.33858 36.6525 7.5602 36.9235 6.7479 36.9252H3.68067V30.2558C3.68141 29.5757 4.00493 28.9238 4.58009 28.4432C5.15528 27.9627 5.935 27.6929 6.7479 27.6931H9.8112V34.3599ZM14.879 24.6166H22.6158V22.0513C22.6128 21.3719 22.2885 20.721 21.7139 20.2409C21.1392 19.7607 20.3608 19.4903 19.5486 19.4887H14.879V16.4109H19.5501C20.4358 16.4105 21.3129 16.5561 22.1312 16.8395C22.9495 17.1228 23.6931 17.5383 24.3193 18.0622C24.9456 18.5861 25.4422 19.2082 25.781 19.8928C26.1197 20.5773 26.2938 21.3111 26.2933 22.052H26.2964V27.6931H14.879V24.6166Z" fill="#8BD94E"/>
<path d="M14.9658 12.3958V15.072V15.6354H16.9832C17.9919 15.6354 20.5136 15.5509 21.8586 15.7762C23.8759 16.1988 24.3803 16.6214 25.0528 17.0439C25.7252 17.4665 26.7339 18.5933 27.0701 19.5793C27.3391 20.3681 27.3503 21.4104 27.4064 21.8329V27.6079C27.9107 27.561 32.1136 27.6079 32.1136 27.6079V20.847C32.1136 19.5793 31.6857 18.3116 31.4411 17.7482C30.9368 16.5861 30.4325 15.9171 29.4238 15.072C28.6626 14.4342 28.0788 13.9451 26.7339 13.3817C25.8571 13.0144 24.0441 12.3958 21.018 12.3958H14.9658Z" fill="#8BD94E"/>
</svg>
